# xmcd
#
# Track frame offsets:
# 150
# 13324
# 25069
# 42863
# 61045
# 80733
# 100799
# 120183
# 134960
# 147898
# 168432
# 181067
# 204148
#
# Disc length: 3001 seconds
#
#
# Revision: 2
# Processed by: cddbd v1.5.2PL0 Copyright (c) Steve Scherf et al.
# Submitted via: FreeRIP 2.951 
#
DISCID=a60bb70d
DTITLE=Jackie Greene - Gone Wanderin'
DYEAR=2002
DGENRE=Blues
TTITLE0=Gone Wanderin'
TTITLE1=Tell Me Mama, Tell Me Right
TTITLE2=Travelin' Song
TTITLE3=Mexican Girl
TTITLE4=Down In The Valley Woe
TTITLE5=Cry Yourself Dry
TTITLE6=By The Side Of The Road, Dressed To Kill
TTITLE7=Freeport Boulevard
TTITLE8=Judgement Day
TTITLE9=Gracie
TTITLE10=Maria, Maria (It's A Sin To Tell A Lie)
TTITLE11=The Ballad Of Sleepy John
TTITLE12=Messin' With The Kid (Live)
EXTD=YEAR: 2002
EXTT0=
EXTT1=
EXTT2=
EXTT3=
EXTT4=
EXTT5=
EXTT6=
EXTT7=
EXTT8=
EXTT9=
EXTT10=
EXTT11=
EXTT12=
PLAYORDER=
